<mxfile host="app.diagrams.net" modified="2023-08-08T16:24:21.736Z" agent="Mozilla/5.0 (Windows NT 10.0; Win64; x64; rv:109.0) Gecko/20100101 Firefox/116.0" etag="17I7IE3jBEyccpyIOBOc" version="21.6.7" type="github">
  <diagram name="Strona-1" id="SBur-qzf3m2XCdRRn54e">
    <mxGraphModel dx="1195" dy="652" grid="1" gridSize="10" guides="1" tooltips="1" connect="1" arrows="1" fold="1" page="1" pageScale="1" pageWidth="827" pageHeight="1169" math="0" shadow="0">
      <root>
        <mxCell id="0" />
        <mxCell id="1" parent="0" />
        <mxCell id="5Pp1bT3PMOUwK2nAA4nR-22" style="edgeStyle=orthogonalEdgeStyle;rounded=0;orthogonalLoop=1;jettySize=auto;html=1;entryX=0.5;entryY=0;entryDx=0;entryDy=0;" edge="1" parent="1" source="5Pp1bT3PMOUwK2nAA4nR-1" target="5Pp1bT3PMOUwK2nAA4nR-20">
          <mxGeometry relative="1" as="geometry" />
        </mxCell>
        <mxCell id="5Pp1bT3PMOUwK2nAA4nR-1" value="wikipedia_speedrun" style="rounded=1;whiteSpace=wrap;html=1;" vertex="1" parent="1">
          <mxGeometry x="360" y="40" width="120" height="60" as="geometry" />
        </mxCell>
        <mxCell id="5Pp1bT3PMOUwK2nAA4nR-2" value="&lt;div&gt;scraper&lt;/div&gt;" style="rounded=1;whiteSpace=wrap;html=1;" vertex="1" parent="1">
          <mxGeometry x="580" y="490" width="120" height="60" as="geometry" />
        </mxCell>
        <mxCell id="5Pp1bT3PMOUwK2nAA4nR-28" style="edgeStyle=orthogonalEdgeStyle;rounded=0;orthogonalLoop=1;jettySize=auto;html=1;entryX=0.5;entryY=0;entryDx=0;entryDy=0;" edge="1" parent="1" source="5Pp1bT3PMOUwK2nAA4nR-3" target="5Pp1bT3PMOUwK2nAA4nR-13">
          <mxGeometry relative="1" as="geometry" />
        </mxCell>
        <mxCell id="5Pp1bT3PMOUwK2nAA4nR-29" style="edgeStyle=orthogonalEdgeStyle;rounded=0;orthogonalLoop=1;jettySize=auto;html=1;" edge="1" parent="1" source="5Pp1bT3PMOUwK2nAA4nR-3" target="5Pp1bT3PMOUwK2nAA4nR-9">
          <mxGeometry relative="1" as="geometry" />
        </mxCell>
        <mxCell id="5Pp1bT3PMOUwK2nAA4nR-3" value="initializer" style="rounded=1;whiteSpace=wrap;html=1;" vertex="1" parent="1">
          <mxGeometry x="160" y="180" width="120" height="60" as="geometry" />
        </mxCell>
        <mxCell id="5Pp1bT3PMOUwK2nAA4nR-21" style="edgeStyle=orthogonalEdgeStyle;rounded=0;orthogonalLoop=1;jettySize=auto;html=1;entryX=0;entryY=0.5;entryDx=0;entryDy=0;" edge="1" parent="1" source="5Pp1bT3PMOUwK2nAA4nR-4" target="5Pp1bT3PMOUwK2nAA4nR-1">
          <mxGeometry relative="1" as="geometry" />
        </mxCell>
        <mxCell id="5Pp1bT3PMOUwK2nAA4nR-4" value="results" style="swimlane;fontStyle=0;childLayout=stackLayout;horizontal=1;startSize=30;horizontalStack=0;resizeParent=1;resizeParentMax=0;resizeLast=0;collapsible=1;marginBottom=0;whiteSpace=wrap;html=1;fillColor=#d5e8d4;strokeColor=#82b366;" vertex="1" parent="1">
          <mxGeometry x="160" y="15" width="120" height="110" as="geometry">
            <mxRectangle x="260" y="130" width="60" height="30" as="alternateBounds" />
          </mxGeometry>
        </mxCell>
        <mxCell id="5Pp1bT3PMOUwK2nAA4nR-5" value="id" style="text;strokeColor=none;fillColor=none;align=left;verticalAlign=middle;spacingLeft=4;spacingRight=4;overflow=hidden;points=[[0,0.5],[1,0.5]];portConstraint=eastwest;rotatable=0;whiteSpace=wrap;html=1;" vertex="1" parent="5Pp1bT3PMOUwK2nAA4nR-4">
          <mxGeometry y="30" width="120" height="20" as="geometry" />
        </mxCell>
        <mxCell id="5Pp1bT3PMOUwK2nAA4nR-6" value="start TEXT" style="text;strokeColor=none;fillColor=none;align=left;verticalAlign=middle;spacingLeft=4;spacingRight=4;overflow=hidden;points=[[0,0.5],[1,0.5]];portConstraint=eastwest;rotatable=0;whiteSpace=wrap;html=1;" vertex="1" parent="5Pp1bT3PMOUwK2nAA4nR-4">
          <mxGeometry y="50" width="120" height="20" as="geometry" />
        </mxCell>
        <mxCell id="5Pp1bT3PMOUwK2nAA4nR-7" value="destination TEXT" style="text;strokeColor=none;fillColor=none;align=left;verticalAlign=middle;spacingLeft=4;spacingRight=4;overflow=hidden;points=[[0,0.5],[1,0.5]];portConstraint=eastwest;rotatable=0;whiteSpace=wrap;html=1;" vertex="1" parent="5Pp1bT3PMOUwK2nAA4nR-4">
          <mxGeometry y="70" width="120" height="20" as="geometry" />
        </mxCell>
        <mxCell id="5Pp1bT3PMOUwK2nAA4nR-8" value="result TEXT" style="text;strokeColor=none;fillColor=none;align=left;verticalAlign=middle;spacingLeft=4;spacingRight=4;overflow=hidden;points=[[0,0.5],[1,0.5]];portConstraint=eastwest;rotatable=0;whiteSpace=wrap;html=1;" vertex="1" parent="5Pp1bT3PMOUwK2nAA4nR-4">
          <mxGeometry y="90" width="120" height="20" as="geometry" />
        </mxCell>
        <mxCell id="5Pp1bT3PMOUwK2nAA4nR-9" value="[start] | [dest] | Paths" style="swimlane;fontStyle=0;childLayout=stackLayout;horizontal=1;startSize=30;horizontalStack=0;resizeParent=1;resizeParentMax=0;resizeLast=0;collapsible=1;marginBottom=0;whiteSpace=wrap;html=1;fillColor=#d5e8d4;strokeColor=#82b366;" vertex="1" parent="1">
          <mxGeometry x="274" y="410" width="140" height="90" as="geometry" />
        </mxCell>
        <mxCell id="5Pp1bT3PMOUwK2nAA4nR-10" value="id" style="text;strokeColor=none;fillColor=none;align=left;verticalAlign=middle;spacingLeft=4;spacingRight=4;overflow=hidden;points=[[0,0.5],[1,0.5]];portConstraint=eastwest;rotatable=0;whiteSpace=wrap;html=1;" vertex="1" parent="5Pp1bT3PMOUwK2nAA4nR-9">
          <mxGeometry y="30" width="140" height="30" as="geometry" />
        </mxCell>
        <mxCell id="5Pp1bT3PMOUwK2nAA4nR-11" value="path TEXT" style="text;strokeColor=none;fillColor=none;align=left;verticalAlign=middle;spacingLeft=4;spacingRight=4;overflow=hidden;points=[[0,0.5],[1,0.5]];portConstraint=eastwest;rotatable=0;whiteSpace=wrap;html=1;" vertex="1" parent="5Pp1bT3PMOUwK2nAA4nR-9">
          <mxGeometry y="60" width="140" height="30" as="geometry" />
        </mxCell>
        <mxCell id="5Pp1bT3PMOUwK2nAA4nR-13" value="[start] | [dest] | Names" style="swimlane;fontStyle=0;childLayout=stackLayout;horizontal=1;startSize=30;horizontalStack=0;resizeParent=1;resizeParentMax=0;resizeLast=0;collapsible=1;marginBottom=0;whiteSpace=wrap;html=1;fillColor=#d5e8d4;strokeColor=#82b366;" vertex="1" parent="1">
          <mxGeometry x="30" y="440" width="140" height="90" as="geometry" />
        </mxCell>
        <mxCell id="5Pp1bT3PMOUwK2nAA4nR-14" value="id" style="text;strokeColor=none;fillColor=none;align=left;verticalAlign=middle;spacingLeft=4;spacingRight=4;overflow=hidden;points=[[0,0.5],[1,0.5]];portConstraint=eastwest;rotatable=0;whiteSpace=wrap;html=1;" vertex="1" parent="5Pp1bT3PMOUwK2nAA4nR-13">
          <mxGeometry y="30" width="140" height="30" as="geometry" />
        </mxCell>
        <mxCell id="5Pp1bT3PMOUwK2nAA4nR-15" value="href_name TEXT" style="text;strokeColor=none;fillColor=none;align=left;verticalAlign=middle;spacingLeft=4;spacingRight=4;overflow=hidden;points=[[0,0.5],[1,0.5]];portConstraint=eastwest;rotatable=0;whiteSpace=wrap;html=1;" vertex="1" parent="5Pp1bT3PMOUwK2nAA4nR-13">
          <mxGeometry y="60" width="140" height="30" as="geometry" />
        </mxCell>
        <mxCell id="5Pp1bT3PMOUwK2nAA4nR-19" style="edgeStyle=orthogonalEdgeStyle;rounded=0;orthogonalLoop=1;jettySize=auto;html=1;fillColor=#d5e8d4;strokeColor=#82b366;" edge="1" parent="1" source="5Pp1bT3PMOUwK2nAA4nR-14" target="5Pp1bT3PMOUwK2nAA4nR-11">
          <mxGeometry relative="1" as="geometry" />
        </mxCell>
        <mxCell id="5Pp1bT3PMOUwK2nAA4nR-23" style="edgeStyle=orthogonalEdgeStyle;rounded=0;orthogonalLoop=1;jettySize=auto;html=1;entryX=1;entryY=0.5;entryDx=0;entryDy=0;" edge="1" parent="1" source="5Pp1bT3PMOUwK2nAA4nR-20" target="5Pp1bT3PMOUwK2nAA4nR-3">
          <mxGeometry relative="1" as="geometry" />
        </mxCell>
        <mxCell id="5Pp1bT3PMOUwK2nAA4nR-24" value="&lt;div&gt;No&lt;/div&gt;" style="edgeLabel;html=1;align=center;verticalAlign=middle;resizable=0;points=[];labelBackgroundColor=#E7C2FF;" vertex="1" connectable="0" parent="5Pp1bT3PMOUwK2nAA4nR-23">
          <mxGeometry x="-0.037" y="-3" relative="1" as="geometry">
            <mxPoint x="3" y="3" as="offset" />
          </mxGeometry>
        </mxCell>
        <mxCell id="5Pp1bT3PMOUwK2nAA4nR-25" style="edgeStyle=orthogonalEdgeStyle;rounded=0;orthogonalLoop=1;jettySize=auto;html=1;entryX=0.5;entryY=0;entryDx=0;entryDy=0;" edge="1" parent="1" source="5Pp1bT3PMOUwK2nAA4nR-20" target="5Pp1bT3PMOUwK2nAA4nR-2">
          <mxGeometry relative="1" as="geometry" />
        </mxCell>
        <mxCell id="5Pp1bT3PMOUwK2nAA4nR-26" value="&lt;div&gt;Yes&lt;/div&gt;" style="edgeLabel;html=1;align=center;verticalAlign=middle;resizable=0;points=[];labelBackgroundColor=#33FF33;" vertex="1" connectable="0" parent="5Pp1bT3PMOUwK2nAA4nR-25">
          <mxGeometry x="-0.1897" y="-2" relative="1" as="geometry">
            <mxPoint x="2" as="offset" />
          </mxGeometry>
        </mxCell>
        <mxCell id="5Pp1bT3PMOUwK2nAA4nR-20" value="&lt;div&gt;start-&amp;gt;dest&lt;/div&gt;&lt;div&gt;in results&lt;br&gt;&lt;/div&gt;" style="rhombus;whiteSpace=wrap;html=1;" vertex="1" parent="1">
          <mxGeometry x="370" y="165" width="100" height="90" as="geometry" />
        </mxCell>
      </root>
    </mxGraphModel>
  </diagram>
</mxfile>
